/* XPM */
static char *icon_back[] = {
/* width height ncolors chars_per_pixel */
"22 26 50 1",
/* colors */
"  c #040204",
"# c #049a04",
"a c #04b204",
"b c #54b254",
"c c #044a04",
"d c #24be24",
"e c #3cce3c",
"f c #042204",
"g c #54d254",
"h c #04be04",
"i c #046204",
"j c #3c7a3c",
"k c #24ca24",
"l c #54d654",
"m c #14c214",
"n c #041a04",
"o c #0c320c",
"p c #2c5e2c",
"q c #4cd24c",
"r c #3c9e3c",
"s c #34ca34",
"t c #64d664",
"u c #040a04",
"v c #4cba4c",
"w c #44ce44",
"x c #142614",
"y c #0cc20c",
"z c #1c6a1c",
"A c #1cc61c",
"B c #1ca21c",
"C c #245224",
"D c #24c624",
"E c #64ca64",
"F c #04c204",
"G c #0c6e0c",
"H c #448a44",
"I c #2cca2c",
"J c #5cd65c",
"K c #14c614",
"L c #0c1a0c",
"M c #1c361c",
"N c #346e34",
"O c #4ca24c",
"P c #34ce34",
"Q c #64da64",
"R c #040e04",
"S c #5cbe5c",
"T c #44d244",
"U c #142a14",
"V c #c4c4c4",
/* pixels */
"VVVVVVVVVVVVVVVVVVVVVV",
"VVVVVVVVVVVVVVVV   VVV",
"VVVVVVVVVVVVVVV uN  VV",
"VVVVVVVVVVVVV  xbQ  VV",
"VVVVVVVVVVVV  CEtQ  VV",
"VVVVVVVVVVV  jtQQJ  VV",
"VVVVVVVVVV LbtQQtJ  VV",
"VVVVVVVV  MEtQQtJg  VV",
"VVVVVVV  NtQQQtJqq  VV",
"VVVVVV ROtQQQtllqT  VV",
"VVVV  xSQQQtJJgqTe  VV",
"VVV  pQQQtQJJqqTeP  VV",
"VV uHQtQtQJlgTTePs  VV",
"VV uHQQQtJlgTwePsD  VV",
"VVV  pQtJlqqwesIkD  VV",
"VVVV  UvlqTeePIkDK  VV",
"VVVVVV urTweIIkDAK  VV",
"VVVVVVV  zPPIkAAyy  VV",
"VVVVVVVV  odDDKmyF  VV",
"VVVVVVVVVV nBKyyFh  VV",
"VVVVVVVVVVV  GFhhh  VV",
"VVVVVVVVVVVV  caFh  VV",
"VVVVVVVVVVVVV  f#h  VV",
"VVVVVVVVVVVVVVV ui  VV",
"VVVVVVVVVVVVVVVV   VVV",
"VVVVVVVVVVVVVVVVVVVVVV"
};
