/* XPM */
static char *icon_stop[] = {
/* width height ncolors chars_per_pixel */
"26 26 50 1",
/* colors */
"  c #040204",
"# c #742224",
"a c #ac3634",
"b c #b45254",
"c c #341614",
"d c #ac4a4c",
"e c #cc4e4c",
"f c #442224",
"g c #240a0c",
"h c #cc6264",
"i c #bc3234",
"j c #843a3c",
"k c #541614",
"l c #c44244",
"m c #c44e4c",
"n c #241214",
"o c #441e1c",
"p c #d45654",
"q c #dc6664",
"r c #c43a3c",
"s c #0c0204",
"t c #9c2e2c",
"u c #b43e3c",
"v c #bc5654",
"w c #3c1214",
"x c #bc4644",
"y c #5c2624",
"z c #2c0e0c",
"A c #d45e5c",
"B c #a43a3c",
"C c #cc4a4c",
"D c #7c2e2c",
"E c #b43234",
"F c #bc4e4c",
"G c #cc5254",
"H c #240e0c",
"I c #c43634",
"J c #8c4244",
"K c #5c1e1c",
"L c #cc4644",
"M c #c45254",
"N c #2c1214",
"O c #d45a5c",
"P c #c43e3c",
"Q c #0c0604",
"R c #3c1614",
"S c #bc4a4c",
"T c #5c2e2c",
"U c #d46264",
"V c #c4c4c4",
/* pixels */
"VVVVVVVVVVVVVVVVVVVVVVVVVV",
"VVVVVVVVVVVVVVVVVVVVVVVVVV",
"VVVVV  VVVVVVVVVVVV  VVVVV",
"VVVV nn VVVVVVVVVV HH VVVV",
"VVV nhho  VVVVVV  RMmH VVV",
"VV nhUqUT  VVVV  yOGeSg VV",
"VV nhqqqUJ  VV  jGpGexg VV",
"VVV fUqUqUbQ  sdpGeeLR VVV",
"VVVV TqqqqUvNnFGGGeCK VVVV",
"VVVV  JqqqUUAOpGpeLD  VVVV",
"VVVVV  bqhqAOGGGCCB  VVVVV",
"VVVVVV  vUOOpGpCmus VVVVVV",
"VVVVVVV nAOGpeeLLz VVVVVVV",
"VVVVVVV cOGpeeCLlg VVVVVVV",
"VVVVVV QbpGGeClllas VVVVVV",
"VVVVV  dppeeLLlLPIt  VVVVV",
"VVVV  jGGeeCLllrIii#  VVVV",
"VVVV yGpeeCuHzarriIik VVVV",
"VVV ROGeeCB   stiIiiiw VVV",
"VV HMpGeLD  VV  #iiIiEg VV",
"VV HmeeCK  VVVV  kIiiEg VV",
"VVV HxxR  VVVVVV  wEEg VVV",
"VVVV Hg VVVVVVVVVV gg VVVV",
"VVVVV  VVVVVVVVVVVV  VVVVV",
"VVVVVVVVVVVVVVVVVVVVVVVVVV",
"VVVVVVVVVVVVVVVVVVVVVVVVVV"
};
