/* XPM */
static char *icon_forward[] = {
/* width height ncolors chars_per_pixel */
"22 26 52 1",
/* colors */
"  c #040204",
"# c #047604",
"a c #04b204",
"b c #54b254",
"c c #043e04",
"d c #049204",
"e c #2c9a2c",
"f c #04c204",
"g c #3cce3c",
"h c #042204",
"i c #045604",
"j c #54ca54",
"k c #1c961c",
"l c #24ca24",
"m c #04a604",
"n c #44a244",
"o c #043204",
"p c #2c5e2c",
"q c #5cd65c",
"r c #3c7a3c",
"s c #149614",
"t c #14c614",
"u c #040a04",
"v c #24ae24",
"w c #244624",
"x c #049a04",
"y c #3c9e3c",
"z c #4cd24c",
"A c #142614",
"B c #046204",
"C c #64ca64",
"D c #34ce34",
"E c #048204",
"F c #04be04",
"G c #044a04",
"H c #0c920c",
"I c #349e34",
"J c #0cc20c",
"K c #44d244",
"L c #042604",
"M c #54d254",
"N c #249a24",
"O c #2cca2c",
"P c #4ca24c",
"Q c #143614",
"R c #246a24",
"S c #64da64",
"T c #248e24",
"U c #1cc61c",
"V c #040e04",
"W c #046a04",
"X c #c4c4c4",
/* pixels */
"XXXXXXXXXXXXXXXXXXXXXX",
"XX   XXXXXXXXXXXXXXXXX",
"XX pA  XXXXXXXXXXXXXXX",
"XX Pjw  XXXXXXXXXXXXXX",
"XX PSSr  XXXXXXXXXXXXX",
"XX PSSSbu XXXXXXXXXXXX",
"XX PSSSqjQ  XXXXXXXXXX",
"XX PSSSMMKR  XXXXXXXXX",
"XX PSqqMKKDTu XXXXXXXX",
"XX PSqjKKgDOvL  XXXXXX",
"XX nMMKKgOOlUtG  XXXXX",
"XX nMKKgDOUUtJF#u XXXX",
"XX yKKgDOlUUJJFFxh XXX",
"XX IKgDOUUUJFFFfxh XXX",
"XX egDOUUUJJFFF#u XXXX",
"XX eDOlUUJFFFFi  XXXXX",
"XX NOUUUJJFFmL  XXXXXX",
"XX NlUUJFFfEu XXXXXXXX",
"XX kUtJJFFB  XXXXXXXXX",
"XX stJFFao  XXXXXXXXXX",
"XX HtFFxu XXXXXXXXXXXX",
"XX HFFW  XXXXXXXXXXXXX",
"XX dac  XXXXXXXXXXXXXX",
"XX ih  XXXXXXXXXXXXXXX",
"XX   XXXXXXXXXXXXXXXXX",
"XXXXXXXXXXXXXXXXXXXXXX"
};
