/* XPM */
static char *icon_forward_d[] = {
/* width height ncolors chars_per_pixel */
"22 26 38 1",
/* colors */
"  c #040204",
"# c #6c6a6c",
"a c #9c9e9c",
"b c #3c3a3c",
"c c #bcbabc",
"d c #242224",
"e c #848284",
"f c #acaeac",
"g c #545254",
"h c #141214",
"i c #c4c6c4",
"j c #0c0a0c",
"k c #7c7a7c",
"l c #a4a6a4",
"m c #2c2e2c",
"n c #646264",
"o c #4c4a4c",
"p c #c4c2c4",
"q c #949294",
"r c #b4b6b4",
"s c #5c5a5c",
"t c #cccecc",
"u c #040604",
"v c #6c6e6c",
"w c #a4a2a4",
"x c #3c3e3c",
"y c #bcbebc",
"z c #242624",
"A c #8c8a8c",
"B c #b4b2b4",
"C c #545654",
"D c #1c1a1c",
"E c #cccacc",
"F c #0c0e0c",
"G c #7c7e7c",
"H c #acaaac",
"I c #343234",
"J c #c4c4c4",
/* pixels */
"JJ   JJJJJJJJJJJJJJJJJ",
"J     JJJJJJJJJJJJJJJJ",
"J  kd  JJJJJJJJJJJJJJJ",
"J  yio   JJJJJJJJJJJJJ",
"J  yttGu  JJJJJJJJJJJJ",
"J  pEtEaD  JJJJJJJJJJJ",
"J  ytEiicx   JJJJJJJJJ",
"J  yEiEiiin   JJJJJJJJ",
"J  ciiiippiqFu JJJJJJJ",
"J  yiEiipiypfm   JJJJJ",
"J  ciippypyyycs   JJJJ",
"J  cipppypyyyccGu  JJJ",
"J  rppypyyycccrcad  JJ",
"J  ripypyycccrrrad  JJ",
"J  rpypycccrrcrej  JJJ",
"J  BpyyyyrccrBC   JJJJ",
"J  Byyycccrrlm   JJJJJ",
"J  fyccccrcAF  JJJJJJJ",
"J  fyccrrrn u JJJJJJJJ",
"J  BccrrHb   JJJJJJJJJ",
"J  fcrrqD  JJJJJJJJJJJ",
"J  frcvu  JJJJJJJJJJJJ",
"J  fBo   JJJJJJJJJJJJJ",
"J  vD   JJJJJJJJJJJJJJ",
"J   u JJJJJJJJJJJJJJJJ",
"JJ   JJJJJJJJJJJJJJJJJ"
};
