/* XPM */
static char *icon_back_d[] = {
/* width height ncolors chars_per_pixel */
"22 26 35 1",
/* colors */
"  c #040204",
"# c #6c6e6c",
"a c #a4a2a4",
"b c #343634",
"c c #1c1e1c",
"d c #bcbabc",
"e c #949294",
"f c #141214",
"g c #4c4e4c",
"h c #c4c6c4",
"i c #7c7a7c",
"j c #b4b2b4",
"k c #343234",
"l c #0c0e0c",
"m c #444644",
"n c #242624",
"o c #c4c2c4",
"p c #9c9a9c",
"q c #1c1a1c",
"r c #646264",
"s c #cccecc",
"t c #848284",
"u c #040604",
"v c #747274",
"w c #acaaac",
"x c #3c3e3c",
"y c #242224",
"z c #bcbebc",
"A c #141614",
"B c #545654",
"C c #cccacc",
"D c #7c7e7c",
"E c #b4b6b4",
"F c #9c9e9c",
"G c #c4c4c4",
/* pixels */
"GGGGGGGGGGGGGGGG   GGG",
"GGGGGGGGGGGGGGG     GG",
"GGGGGGGGGGGGGG  lDl GG",
"GGGGGGGGGGGG   njhy GG",
"GGGGGGGGGGG   BhhCn GG",
"GGGGGGGGGG  uDCCChy GG",
"GGGGGGGGG  cwhChChn GG",
"GGGGGGG   mzChCChhy GG",
"GGGGGG   #sChshhhCy GG",
"GGGGG  AFshCChhhhoc GG",
"GGG   bdsCChhChCooy GG",
"GG   rCshChChhooohc GG",
"G  lehChCChhhooozoc GG",
"G  ueChCChhhoohozoc GG",
"GG   rhhhhCoohzzozy GG",
"GGG   kEhhooozoozzc GG",
"GGGGG  fpoohzozzzzy GG",
"GGGGGG  u#zozozzzzc GG",
"GGGGGGG   xdzzdzddy GG",
"GGGGGGGGG  qazzdddc GG",
"GGGGGGGGGG  uidddEy GG",
"GGGGGGGGGGG   gjEdc GG",
"GGGGGGGGGGGG   yaEy GG",
"GGGGGGGGGGGGGG  l#l GG",
"GGGGGGGGGGGGGGG     GG",
"GGGGGGGGGGGGGGGG   GGG"
};
